<svg width="17" height="17" viewBox="0 0 17 17" fill="none" xmlns="http://www.w3.org/2000/svg">
<path d="M16.5149 12.013L12.7962 10.4193C12.6373 10.3516 12.4607 10.3373 12.2931 10.3786C12.1254 10.42 11.9757 10.5146 11.8665 10.6484L10.2196 12.6605C7.63497 11.4419 5.55495 9.36185 4.33633 6.77723L6.34844 5.13036C6.48247 5.02134 6.57734 4.87163 6.61868 4.70388C6.66002 4.53613 6.64557 4.35948 6.57754 4.20067L4.98379 0.481919C4.90912 0.310726 4.77706 0.170953 4.61037 0.0867015C4.44369 0.00244968 4.25283 -0.0210002 4.0707 0.0203953L0.617578 0.81727C0.44199 0.857817 0.285329 0.956683 0.173166 1.09773C0.0610025 1.23878 -4.04484e-05 1.41368 2.01085e-08 1.59389C2.01085e-08 10.1105 6.90293 17.0001 15.4063 17.0001C15.5865 17.0003 15.7615 16.9392 15.9026 16.8271C16.0437 16.7149 16.1426 16.5582 16.1832 16.3826L16.9801 12.9294C17.0212 12.7464 16.9973 12.5548 16.9124 12.3875C16.8275 12.2203 16.6869 12.0879 16.5149 12.013Z" fill="#C4C4C4"/>
</svg>
